<svg viewBox="0 0 463 123" xmlns="http://www.w3.org/2000/svg">
    <path d="M130.672 86.4141H142.496V69.2383H155.426C167.246 69.2383 176.113 61.7734 176.113 51.3203C176.113 40.4922 167.246 33.0273 155.426 33.0273H130.672V86.4141ZM142.496 58.7852V43.4805H153.945C159.859 43.4805 163.922 46.4648 163.922 51.3203C163.922 55.8008 159.859 58.7852 153.945 58.7852H142.496ZM183.871 86.4141H203.453C221.922 86.4141 235.223 75.5859 235.223 59.9062C235.223 44.2266 221.922 33.0273 203.453 33.0273H183.871V86.4141ZM195.691 76.332V43.4805H204.93C215.645 43.4805 223.031 50.1992 223.031 59.9062C223.031 69.2383 215.645 76.332 204.93 76.332H195.691ZM286.574 43.4805V33.0273H244.09V86.4141H255.91V65.5078H283.617V55.0547H255.91V43.4805H286.574ZM314.652 87.5352C327.582 87.5352 334.23 80.4414 334.23 72.2266C334.23 62.5195 326.473 59.1602 316.129 56.5469C306.895 54.3086 301.352 52.4414 301.352 46.8398C301.352 41.9883 306.523 37.5078 313.172 37.5078C318.715 37.5078 324.254 40.1211 329.059 44.6016L332.754 39.7461C327.582 35.2656 321.672 32.2812 313.543 32.2812C302.828 32.2812 295.07 39 295.07 47.2148C295.07 56.5469 302.09 59.9063 313.172 62.5195C322.781 64.7617 327.949 67 327.949 72.6016C327.949 77.4531 323.52 81.9336 315.02 81.9336C307.262 81.9336 301.723 78.5742 296.918 74.0938L293.223 78.9453C298.766 84.1719 305.785 87.5352 314.652 87.5352ZM364.156 45.3477C358.246 45.3477 353.074 48.707 350.484 52.8125V32.2812H344.574V86.4141H350.484V61.0273C350.484 55.4258 356.398 50.5742 363.418 50.5742C369.328 50.5742 373.762 55.4258 373.762 61.7734V86.4141H379.672V61.0273C379.672 52.0664 373.391 45.3477 364.156 45.3477ZM394.82 39C397.035 39 398.883 37.1328 398.883 35.2656C398.883 33.0273 397.035 31.5352 394.82 31.5352C392.602 31.5352 390.754 33.0273 390.754 35.2656C390.754 37.1328 392.602 39 394.82 39ZM391.863 86.4141H397.773V46.4648H391.863V86.4141ZM419.199 40.8672C419.199 37.8789 421.418 35.6406 423.637 35.6406C425.48 35.6406 427.328 36.3867 428.066 37.5078L431.02 33.0273C428.805 31.5352 426.219 30.4141 423.266 30.4141C417.355 30.4141 413.289 34.8945 413.289 40.8672V46.4648H406.641V51.6914H413.289V86.4141H419.199V51.6914H429.547V46.4648H419.199V40.8672ZM456.145 80.8125C455.035 81.5586 453.559 82.3086 451.711 82.3086C449.492 82.3086 447.277 80.0664 447.277 77.0781V51.6914H457.621V46.4648H447.277V35.2656H441.367V46.4648H434.719V51.6914H441.367V77.0781C441.367 83.4258 445.43 87.5352 451.34 87.5352C454.297 87.5352 456.883 86.4141 459.102 84.9219L456.145 80.8125Z" fill="#ffffff" />
    <path d="M59.9203 34.2961L88.2797 71.177L59.9203 86.2121L56.666 123.093V-0.235107L59.9203 34.2961Z" fill="#ffffff" />
    <path d="M96.2372 51.9144L89.7262 70.7076L77.4071 55.2031L96.2372 51.9144ZM106 59.4332L97.6308 52.8558L95.3056 60.6056L106 59.4332ZM86.0074 73.9963L85.7763 77.5209L61.8314 86.448L86.0074 73.9963ZM46.9561 95.8446H52.7666V90.4397H46.9561V95.8446ZM48.1162 75.1712H52.7666V79.6347H48.1162V75.1712ZM47.4206 81.515H52.7666V86.6815H47.4206V81.515ZM37.4243 105.239V100.542H42.3057V105.239H37.4243ZM33.472 104.066V101.481H36.0307V104.066H33.472ZM35.7972 99.3668V95.8446H39.516V99.3668H35.7972ZM35.0991 107.355V105.239H37.1933V107.355H35.0991ZM39.516 90.9092V88.0924H42.5392V90.9092H39.516ZM42.0747 85.5067V81.9845H45.56V85.5067H42.0747ZM50.2104 71.1771H52.7666V73.5268H50.2104V71.1771ZM46.258 62.9553H52.7666V69.0632H46.258V62.9553ZM47.8852 56.6139H52.7666V61.311H47.8852V56.6139ZM48.8143 51.4449H52.7666V55.2031H48.8143V51.4449ZM46.0245 48.1563H48.3497V50.506H46.0245V48.1563ZM44.8619 57.5529H46.9561V59.4332H44.8619V57.5529ZM48.3497 42.2843H52.7666V46.5119H48.3497V42.2843ZM43.0038 41.8149H46.7226V45.337H43.0038V41.8149ZM40.6786 31.2434H45.56V35.9404H40.6786V31.2434ZM46.4891 37.3513H50.2104V41.1094H46.4891V37.3513ZM49.7458 33.5931H52.7666V36.4099H49.7458V33.5931ZM13.0173 27.4852H16.038V30.3045H13.0173V27.4852ZM17.8987 25.8409H20.6884V28.6577H17.8987V25.8409ZM23.7092 27.0133H29.2886V32.4183H23.7092V27.0133ZM37.8888 40.64H40.6786V43.4592H37.8888V40.64ZM42.0747 52.1504H44.6309V54.5001H42.0747V52.1504ZM38.1223 46.2784H42.0747V50.0366H38.1223V46.2784ZM32.0783 40.64H34.8681V43.4592H32.0783V40.64ZM20.2214 32.6518H22.082V34.5321H20.2214V32.6518ZM32.5429 29.1296H36.2617V32.8877H32.5429V29.1296ZM26.9634 36.4099H30.2177V39.4651H26.9634V36.4099ZM12.3192 32.4183H14.1798V34.2961H12.3192V32.4183ZM14.6444 35.471H18.3632V39.2291H14.6444V35.471ZM20.9194 37.3513H23.9427V40.1705H20.9194V37.3513ZM19.9903 41.8149H22.082V43.9287H19.9903V41.8149ZM23.4781 44.8676H25.5698V46.7479H23.4781V44.8676ZM26.7324 44.1622H30.6823V48.1563H26.7324V44.1622ZM31.6138 48.3922H33.472V50.506H31.6138V48.3922ZM33.2409 51.6809H35.3326V53.5588H33.2409V51.6809ZM36.2617 52.6198H40.9121V57.0834H36.2617V52.6198ZM42.0747 59.9026H43.9328V62.0164H42.0747V59.9026ZM40.4475 95.8446V93.7284H42.5392V95.8446H40.4475ZM32.0783 108.058V106.883H33.472V108.058H32.0783ZM7.90234 24.666H9.99403V26.7798H7.90234V24.666ZM45.0954 99.6028V97.489H47.1871V99.6028H45.0954ZM44.1664 93.7284V92.5535H45.56V93.7284H44.1664ZM33.0074 34.5321H36.9598V38.5262H33.0074V34.5321Z" fill="#ffffff" />
</svg>